<?xml version="1.0" encoding="UTF-8" standalone="no"?>
<!-- Created with Inkscape (http://www.inkscape.org/) -->

<svg
   xmlns:dc="http://purl.org/dc/elements/1.1/"
   xmlns:cc="http://creativecommons.org/ns#"
   xmlns:rdf="http://www.w3.org/1999/02/22-rdf-syntax-ns#"
   xmlns:svg="http://www.w3.org/2000/svg"
   xmlns="http://www.w3.org/2000/svg"
   xmlns:sodipodi="http://sodipodi.sourceforge.net/DTD/sodipodi-0.dtd"
   xmlns:inkscape="http://www.inkscape.org/namespaces/inkscape"
   width="640px"
   height="480px"
   id="svg2993"
   version="1.1"
   inkscape:version="0.48.3.1 r9886"
   sodipodi:docname="Player.svg">
  <defs
     id="defs2995" />
  <sodipodi:namedview
     id="base"
     pagecolor="#ffffff"
     bordercolor="#666666"
     borderopacity="1.0"
     inkscape:pageopacity="0.0"
     inkscape:pageshadow="2"
     inkscape:zoom="0.77472527"
     inkscape:cx="288.9656"
     inkscape:cy="282.6569"
     inkscape:current-layer="layer12"
     inkscape:document-units="px"
     showgrid="false"
     inkscape:window-width="1203"
     inkscape:window-height="727"
     inkscape:window-x="134"
     inkscape:window-y="50"
     inkscape:window-maximized="0" />
  <metadata
     id="metadata2998">
    <rdf:RDF>
      <cc:Work
         rdf:about="">
        <dc:format>image/svg+xml</dc:format>
        <dc:type
           rdf:resource="http://purl.org/dc/dcmitype/StillImage" />
        <dc:title></dc:title>
      </cc:Work>
    </rdf:RDF>
  </metadata>
  <g
     id="layer1"
     inkscape:label="Layer 1"
     inkscape:groupmode="layer"
     style="display:inline" />
  <g
     inkscape:groupmode="layer"
     id="layer15"
     inkscape:label="Camada#1"
     style="display:inline">
    <path
       style="fill:none;stroke:#000000;stroke-width:1px;stroke-linecap:butt;stroke-linejoin:miter;stroke-opacity:1"
       d="m -2.7381582,-2.8285611 647.1180482,0 0,489.2176011 -647.1180482,0 z"
       id="path4477"
       inkscape:connector-curvature="0" />
    <path
       style="fill:#000000;fill-opacity:1;stroke:#000000;stroke-width:2.00798273;stroke-miterlimit:4;stroke-opacity:1;stroke-dasharray:none"
       d="m -2.1791278,241.46034 0,-243.6960825 322.6463078,0 322.64631,0 0,243.6960825 0,243.69608 -322.64631,0 -322.6463078,0 0,-243.69608 z"
       id="path4479"
       inkscape:connector-curvature="0" />
    <path
       sodipodi:type="arc"
       style="fill:#ffffff;fill-opacity:1;stroke:none"
       id="path4500"
       sodipodi:cx="184.82568"
       sodipodi:cy="132.71027"
       sodipodi:rx="9.5835533"
       sodipodi:ry="9.5835533"
       d="m 194.40924,132.71027 a 9.5835533,9.5835533 0 1 1 -19.16711,0 9.5835533,9.5835533 0 1 1 19.16711,0 z"
       transform="matrix(0.13690473,0,0,0.13690473,151.25065,106.27008)" />
    <path
       sodipodi:type="arc"
       style="fill:#ffffff;fill-opacity:1;stroke:none;display:inline"
       id="path4500-8"
       sodipodi:cx="184.82568"
       sodipodi:cy="132.71027"
       sodipodi:rx="9.5835533"
       sodipodi:ry="9.5835533"
       d="m 194.40924,132.71027 a 9.5835533,9.5835533 0 1 1 -19.16711,0 9.5835533,9.5835533 0 1 1 19.16711,0 z"
       transform="matrix(0.13690473,0,0,0.13690473,135.3351,169.76113)" />
    <path
       sodipodi:type="arc"
       style="fill:#ffffff;fill-opacity:1;stroke:none;display:inline"
       id="path4500-9"
       sodipodi:cx="184.82568"
       sodipodi:cy="132.71027"
       sodipodi:rx="9.5835533"
       sodipodi:ry="9.5835533"
       d="m 194.40924,132.71027 a 9.5835533,9.5835533 0 1 1 -19.16711,0 9.5835533,9.5835533 0 1 1 19.16711,0 z"
       transform="matrix(0.13690473,0,0,0.13690473,305.10091,162.45937)" />
    <path
       sodipodi:type="arc"
       style="fill:#ffffff;fill-opacity:1;stroke:none;display:inline"
       id="path4500-82"
       sodipodi:cx="184.82568"
       sodipodi:cy="132.71027"
       sodipodi:rx="9.5835533"
       sodipodi:ry="9.5835533"
       d="m 194.40924,132.71027 a 9.5835533,9.5835533 0 1 1 -19.16711,0 9.5835533,9.5835533 0 1 1 19.16711,0 z"
       transform="matrix(0.13690473,0,0,0.13690473,244.86143,73.925593)" />
    <path
       sodipodi:type="arc"
       style="fill:#ffffff;fill-opacity:1;stroke:none;display:inline"
       id="path4500-80"
       sodipodi:cx="184.82568"
       sodipodi:cy="132.71027"
       sodipodi:rx="9.5835533"
       sodipodi:ry="9.5835533"
       d="m 194.40924,132.71027 a 9.5835533,9.5835533 0 1 1 -19.16711,0 9.5835533,9.5835533 0 1 1 19.16711,0 z"
       transform="matrix(0.13690473,0,0,0.13690473,226.60704,184.36464)" />
    <path
       sodipodi:type="arc"
       style="fill:#ffffff;fill-opacity:1;stroke:none;display:inline"
       id="path4500-0"
       sodipodi:cx="184.82568"
       sodipodi:cy="132.71027"
       sodipodi:rx="9.5835533"
       sodipodi:ry="9.5835533"
       d="m 194.40924,132.71027 a 9.5835533,9.5835533 0 1 1 -19.16711,0 9.5835533,9.5835533 0 1 1 19.16711,0 z"
       transform="matrix(0.13690473,0,0,0.13690473,148.11318,240.95324)" />
    <path
       sodipodi:type="arc"
       style="fill:#ffffff;fill-opacity:1;stroke:none;display:inline"
       id="path4500-7"
       sodipodi:cx="184.82568"
       sodipodi:cy="132.71027"
       sodipodi:rx="9.5835533"
       sodipodi:ry="9.5835533"
       d="m 194.40924,132.71027 a 9.5835533,9.5835533 0 1 1 -19.16711,0 9.5835533,9.5835533 0 1 1 19.16711,0 z"
       transform="matrix(0.13690473,0,0,0.13690473,246.68687,268.33482)" />
    <path
       sodipodi:type="arc"
       style="fill:#ffffff;fill-opacity:1;stroke:none;display:inline"
       id="path4500-2"
       sodipodi:cx="184.82568"
       sodipodi:cy="132.71027"
       sodipodi:rx="9.5835533"
       sodipodi:ry="9.5835533"
       d="m 194.40924,132.71027 a 9.5835533,9.5835533 0 1 1 -19.16711,0 9.5835533,9.5835533 0 1 1 19.16711,0 z"
       transform="matrix(0.13690473,0,0,0.13690473,382.68206,157.89578)" />
    <path
       sodipodi:type="arc"
       style="fill:#ffffff;fill-opacity:1;stroke:none;display:inline"
       id="path4500-73"
       sodipodi:cx="184.82568"
       sodipodi:cy="132.71027"
       sodipodi:rx="9.5835533"
       sodipodi:ry="9.5835533"
       d="m 194.40924,132.71027 a 9.5835533,9.5835533 0 1 1 -19.16711,0 9.5835533,9.5835533 0 1 1 19.16711,0 z"
       transform="matrix(0.13690473,0,0,0.13690473,432.88163,62.97296)" />
    <path
       sodipodi:type="arc"
       style="fill:#ffffff;fill-opacity:1;stroke:none;display:inline"
       id="path4500-96"
       sodipodi:cx="184.82568"
       sodipodi:cy="132.71027"
       sodipodi:rx="9.5835533"
       sodipodi:ry="9.5835533"
       d="m 194.40924,132.71027 a 9.5835533,9.5835533 0 1 1 -19.16711,0 9.5835533,9.5835533 0 1 1 19.16711,0 z"
       transform="matrix(0.13690473,0,0,0.13690473,329.74434,54.758486)" />
    <path
       sodipodi:type="arc"
       style="fill:#ffffff;fill-opacity:1;stroke:none;display:inline"
       id="path4500-4"
       sodipodi:cx="184.82568"
       sodipodi:cy="132.71027"
       sodipodi:rx="9.5835533"
       sodipodi:ry="9.5835533"
       d="m 194.40924,132.71027 a 9.5835533,9.5835533 0 1 1 -19.16711,0 9.5835533,9.5835533 0 1 1 19.16711,0 z"
       transform="matrix(0.13690473,0,0,0.13690473,566.13866,62.97296)" />
    <path
       sodipodi:type="arc"
       style="fill:#ffffff;fill-opacity:1;stroke:none;display:inline"
       id="path4500-6"
       sodipodi:cx="184.82568"
       sodipodi:cy="132.71027"
       sodipodi:rx="9.5835533"
       sodipodi:ry="9.5835533"
       d="m 194.40924,132.71027 a 9.5835533,9.5835533 0 1 1 -19.16711,0 9.5835533,9.5835533 0 1 1 19.16711,0 z"
       transform="matrix(0.13690473,0,0,0.13690473,508.63734,36.504098)" />
    <path
       sodipodi:type="arc"
       style="fill:#ffffff;fill-opacity:1;stroke:none;display:inline"
       id="path4500-67"
       sodipodi:cx="184.82568"
       sodipodi:cy="132.71027"
       sodipodi:rx="9.5835533"
       sodipodi:ry="9.5835533"
       d="m 194.40924,132.71027 a 9.5835533,9.5835533 0 1 1 -19.16711,0 9.5835533,9.5835533 0 1 1 19.16711,0 z"
       transform="matrix(0.13690473,0,0,0.13690473,482.16847,143.29227)" />
    <path
       sodipodi:type="arc"
       style="fill:#ffffff;fill-opacity:1;stroke:none;display:inline"
       id="path4500-70"
       sodipodi:cx="184.82568"
       sodipodi:cy="132.71027"
       sodipodi:rx="9.5835533"
       sodipodi:ry="9.5835533"
       d="m 194.40924,132.71027 a 9.5835533,9.5835533 0 1 1 -19.16711,0 9.5835533,9.5835533 0 1 1 19.16711,0 z"
       transform="matrix(0.13690473,0,0,0.13690473,303.27547,100.39446)" />
    <path
       sodipodi:type="arc"
       style="fill:#ffffff;fill-opacity:1;stroke:none;display:inline"
       id="path4500-5"
       sodipodi:cx="184.82568"
       sodipodi:cy="132.71027"
       sodipodi:rx="9.5835533"
       sodipodi:ry="9.5835533"
       d="m 194.40924,132.71027 a 9.5835533,9.5835533 0 1 1 -19.16711,0 9.5835533,9.5835533 0 1 1 19.16711,0 z"
       transform="matrix(0.13690473,0,0,0.13690473,55.015797,36.504098)" />
    <path
       sodipodi:type="arc"
       style="fill:#ffffff;fill-opacity:1;stroke:none;display:inline"
       id="path4500-87"
       sodipodi:cx="184.82568"
       sodipodi:cy="132.71027"
       sodipodi:rx="9.5835533"
       sodipodi:ry="9.5835533"
       d="m 194.40924,132.71027 a 9.5835533,9.5835533 0 1 1 -19.16711,0 9.5835533,9.5835533 0 1 1 19.16711,0 z"
       transform="matrix(0.13690473,0,0,0.13690473,170.93116,35.591378)" />
    <path
       sodipodi:type="arc"
       style="fill:#ffffff;fill-opacity:1;stroke:none;display:inline"
       id="path4500-77"
       sodipodi:cx="184.82568"
       sodipodi:cy="132.71027"
       sodipodi:rx="9.5835533"
       sodipodi:ry="9.5835533"
       d="m 194.40924,132.71027 a 9.5835533,9.5835533 0 1 1 -19.16711,0 9.5835533,9.5835533 0 1 1 19.16711,0 z"
       transform="matrix(0.13690473,0,0,0.13690473,72.357465,101.30717)" />
    <path
       sodipodi:type="arc"
       style="fill:#ffffff;fill-opacity:1;stroke:none;display:inline"
       id="path4500-76"
       sodipodi:cx="184.82568"
       sodipodi:cy="132.71027"
       sodipodi:rx="9.5835533"
       sodipodi:ry="9.5835533"
       d="m 194.40924,132.71027 a 9.5835533,9.5835533 0 1 1 -19.16711,0 9.5835533,9.5835533 0 1 1 19.16711,0 z"
       transform="matrix(0.13690473,0,0,0.13690473,29.459654,161.54666)" />
    <path
       sodipodi:type="arc"
       style="fill:#ffffff;fill-opacity:1;stroke:none;display:inline"
       id="path4500-26"
       sodipodi:cx="184.82568"
       sodipodi:cy="132.71027"
       sodipodi:rx="9.5835533"
       sodipodi:ry="9.5835533"
       d="m 194.40924,132.71027 a 9.5835533,9.5835533 0 1 1 -19.16711,0 9.5835533,9.5835533 0 1 1 19.16711,0 z"
       transform="matrix(0.13690473,0,0,0.13690473,50.4522,226.34973)" />
    <path
       sodipodi:type="arc"
       style="fill:#ffffff;fill-opacity:1;stroke:none;display:inline"
       id="path4500-92"
       sodipodi:cx="184.82568"
       sodipodi:cy="132.71027"
       sodipodi:rx="9.5835533"
       sodipodi:ry="9.5835533"
       d="m 194.40924,132.71027 a 9.5835533,9.5835533 0 1 1 -19.16711,0 9.5835533,9.5835533 0 1 1 19.16711,0 z"
       transform="matrix(0.13690473,0,0,0.13690473,77.833782,334.05062)" />
    <path
       sodipodi:type="arc"
       style="fill:#ffffff;fill-opacity:1;stroke:none;display:inline"
       id="path4500-3"
       sodipodi:cx="184.82568"
       sodipodi:cy="132.71027"
       sodipodi:rx="9.5835533"
       sodipodi:ry="9.5835533"
       d="m 194.40924,132.71027 a 9.5835533,9.5835533 0 1 1 -19.16711,0 9.5835533,9.5835533 0 1 1 19.16711,0 z"
       transform="matrix(0.13690473,0,0,0.13690473,138.98598,363.25764)" />
    <path
       sodipodi:type="arc"
       style="fill:#ffffff;fill-opacity:1;stroke:none;display:inline"
       id="path4500-74"
       sodipodi:cx="184.82568"
       sodipodi:cy="132.71027"
       sodipodi:rx="9.5835533"
       sodipodi:ry="9.5835533"
       d="m 194.40924,132.71027 a 9.5835533,9.5835533 0 1 1 -19.16711,0 9.5835533,9.5835533 0 1 1 19.16711,0 z"
       transform="matrix(0.13690473,0,0,0.13690473,347.086,269.24754)" />
    <path
       sodipodi:type="arc"
       style="fill:#ffffff;fill-opacity:1;stroke:none;display:inline"
       id="path4500-32"
       sodipodi:cx="184.82568"
       sodipodi:cy="132.71027"
       sodipodi:rx="9.5835533"
       sodipodi:ry="9.5835533"
       d="m 194.40924,132.71027 a 9.5835533,9.5835533 0 1 1 -19.16711,0 9.5835533,9.5835533 0 1 1 19.16711,0 z"
       transform="matrix(0.13690473,0,0,0.13690473,493.12111,243.6914)" />
    <path
       sodipodi:type="arc"
       style="fill:#ffffff;fill-opacity:1;stroke:none;display:inline"
       id="path4500-00"
       sodipodi:cx="184.82568"
       sodipodi:cy="132.71027"
       sodipodi:rx="9.5835533"
       sodipodi:ry="9.5835533"
       d="m 194.40924,132.71027 a 9.5835533,9.5835533 0 1 1 -19.16711,0 9.5835533,9.5835533 0 1 1 19.16711,0 z"
       transform="matrix(0.13690473,0,0,0.13690473,449.31058,223.61157)" />
    <path
       sodipodi:type="arc"
       style="fill:#ffffff;fill-opacity:1;stroke:none;display:inline"
       id="path4500-72"
       sodipodi:cx="184.82568"
       sodipodi:cy="132.71027"
       sodipodi:rx="9.5835533"
       sodipodi:ry="9.5835533"
       d="m 194.40924,132.71027 a 9.5835533,9.5835533 0 1 1 -19.16711,0 9.5835533,9.5835533 0 1 1 19.16711,0 z"
       transform="matrix(0.13690473,0,0,0.13690473,541.49524,344.09053)" />
    <path
       sodipodi:type="arc"
       style="fill:#ffffff;fill-opacity:1;stroke:none;display:inline"
       id="path4500-44"
       sodipodi:cx="184.82568"
       sodipodi:cy="132.71027"
       sodipodi:rx="9.5835533"
       sodipodi:ry="9.5835533"
       d="m 194.40924,132.71027 a 9.5835533,9.5835533 0 1 1 -19.16711,0 9.5835533,9.5835533 0 1 1 19.16711,0 z"
       transform="matrix(0.13690473,0,0,0.13690473,441.0961,313.05808)" />
    <path
       sodipodi:type="arc"
       style="fill:#ffffff;fill-opacity:1;stroke:none;display:inline"
       id="path4500-1"
       sodipodi:cx="184.82568"
       sodipodi:cy="132.71027"
       sodipodi:rx="9.5835533"
       sodipodi:ry="9.5835533"
       d="m 194.40924,132.71027 a 9.5835533,9.5835533 0 1 1 -19.16711,0 9.5835533,9.5835533 0 1 1 19.16711,0 z"
       transform="matrix(0.13690473,0,0,0.13690473,336.13337,375.12299)" />
    <path
       sodipodi:type="arc"
       style="fill:#ffffff;fill-opacity:1;stroke:none;display:inline"
       id="path4500-002"
       sodipodi:cx="184.82568"
       sodipodi:cy="132.71027"
       sodipodi:rx="9.5835533"
       sodipodi:ry="9.5835533"
       d="m 194.40924,132.71027 a 9.5835533,9.5835533 0 1 1 -19.16711,0 9.5835533,9.5835533 0 1 1 19.16711,0 z"
       transform="matrix(0.13690473,0,0,0.13690473,261.29038,349.56685)" />
    <path
       sodipodi:type="arc"
       style="fill:#ffffff;fill-opacity:1;stroke:none;display:inline"
       id="path4500-69"
       sodipodi:cx="184.82568"
       sodipodi:cy="132.71027"
       sodipodi:rx="9.5835533"
       sodipodi:ry="9.5835533"
       d="m 194.40924,132.71027 a 9.5835533,9.5835533 0 1 1 -19.16711,0 9.5835533,9.5835533 0 1 1 19.16711,0 z"
       transform="matrix(0.13690473,0,0,-0.13690473,209.26537,354.87172)" />
    <path
       sodipodi:type="arc"
       style="fill:#ffffff;fill-opacity:1;stroke:none;display:inline"
       id="path4500-43"
       sodipodi:cx="184.82568"
       sodipodi:cy="132.71027"
       sodipodi:rx="9.5835533"
       sodipodi:ry="9.5835533"
       d="m 194.40924,132.71027 a 9.5835533,9.5835533 0 1 1 -19.16711,0 9.5835533,9.5835533 0 1 1 19.16711,0 z"
       transform="matrix(0.13690473,0,0,0.13690473,204.70178,406.15545)" />
    <path
       sodipodi:type="arc"
       style="fill:#ffffff;fill-opacity:1;stroke:none;display:inline"
       id="path4500-774"
       sodipodi:cx="184.82568"
       sodipodi:cy="132.71027"
       sodipodi:rx="9.5835533"
       sodipodi:ry="9.5835533"
       d="m 194.40924,132.71027 a 9.5835533,9.5835533 0 1 1 -19.16711,0 9.5835533,9.5835533 0 1 1 19.16711,0 z"
       transform="matrix(0.13690473,0,0,0.13690473,94.262731,290.24009)" />
    <path
       sodipodi:type="arc"
       style="fill:#ffffff;fill-opacity:1;stroke:none;display:inline"
       id="path4500-60"
       sodipodi:cx="184.82568"
       sodipodi:cy="132.71027"
       sodipodi:rx="9.5835533"
       sodipodi:ry="9.5835533"
       d="m 194.40924,132.71027 a 9.5835533,9.5835533 0 1 1 -19.16711,0 9.5835533,9.5835533 0 1 1 19.16711,0 z"
       transform="matrix(0.13690473,0,0,0.13690473,27.634215,391.55194)" />
    <path
       sodipodi:type="arc"
       style="fill:#ffffff;fill-opacity:1;stroke:none;display:inline"
       id="path4500-05"
       sodipodi:cx="184.82568"
       sodipodi:cy="132.71027"
       sodipodi:rx="9.5835533"
       sodipodi:ry="9.5835533"
       d="m 194.40924,132.71027 a 9.5835533,9.5835533 0 1 1 -19.16711,0 9.5835533,9.5835533 0 1 1 19.16711,0 z"
       transform="matrix(0.13690473,0,0,0.13690473,21.245179,302.10544)" />
    <path
       sodipodi:type="arc"
       style="fill:#ffffff;fill-opacity:1;stroke:none;display:inline"
       id="path4500-07"
       sodipodi:cx="184.82568"
       sodipodi:cy="132.71027"
       sodipodi:rx="9.5835533"
       sodipodi:ry="9.5835533"
       d="m 194.40924,132.71027 a 9.5835533,9.5835533 0 1 1 -19.16711,0 9.5835533,9.5835533 0 1 1 19.16711,0 z"
       transform="matrix(0.13690473,0,0,0.13690473,133.50966,418.93353)" />
    <path
       sodipodi:type="arc"
       style="fill:#ffffff;fill-opacity:1;stroke:none;display:inline"
       id="path4500-99"
       sodipodi:cx="184.82568"
       sodipodi:cy="132.71027"
       sodipodi:rx="9.5835533"
       sodipodi:ry="9.5835533"
       d="m 194.40924,132.71027 a 9.5835533,9.5835533 0 1 1 -19.16711,0 9.5835533,9.5835533 0 1 1 19.16711,0 z"
       transform="matrix(0.13690473,0,0,0.13690473,471.21584,393.37738)" />
    <path
       sodipodi:type="arc"
       style="fill:#ffffff;fill-opacity:1;stroke:none;display:inline"
       id="path4500-53"
       sodipodi:cx="184.82568"
       sodipodi:cy="132.71027"
       sodipodi:rx="9.5835533"
       sodipodi:ry="9.5835533"
       d="m 194.40924,132.71027 a 9.5835533,9.5835533 0 1 1 -19.16711,0 9.5835533,9.5835533 0 1 1 19.16711,0 z"
       transform="matrix(0.13690473,0,0,0.13690473,529.62988,222.69885)" />
    <path
       sodipodi:type="arc"
       style="fill:#ffffff;fill-opacity:1;stroke:none;display:inline"
       id="path4500-66"
       sodipodi:cx="184.82568"
       sodipodi:cy="132.71027"
       sodipodi:rx="9.5835533"
       sodipodi:ry="9.5835533"
       d="m 194.40924,132.71027 a 9.5835533,9.5835533 0 1 1 -19.16711,0 9.5835533,9.5835533 0 1 1 19.16711,0 z"
       transform="matrix(0.13690473,0,0,0.13690473,389.98382,106.78349)" />
    <path
       sodipodi:type="arc"
       style="fill:#ffffff;fill-opacity:1;stroke:none;display:inline"
       id="path4500-808"
       sodipodi:cx="184.82568"
       sodipodi:cy="132.71027"
       sodipodi:rx="9.5835533"
       sodipodi:ry="9.5835533"
       d="m 194.40924,132.71027 a 9.5835533,9.5835533 0 1 1 -19.16711,0 9.5835533,9.5835533 0 1 1 19.16711,0 z"
       transform="matrix(0.13690473,0,0,0.13690473,341.60969,220.87342)" />
    <path
       sodipodi:type="arc"
       style="fill:#ffffff;fill-opacity:1;stroke:none;display:inline"
       id="path4500-10"
       sodipodi:cx="184.82568"
       sodipodi:cy="132.71027"
       sodipodi:rx="9.5835533"
       sodipodi:ry="9.5835533"
       d="m 194.40924,132.71027 a 9.5835533,9.5835533 0 1 1 -19.16711,0 9.5835533,9.5835533 0 1 1 19.16711,0 z"
       transform="matrix(0.13690473,0,0,0.13690473,232.08336,124.12516)" />
  </g>
  <g
     inkscape:groupmode="layer"
     id="layer18"
     inkscape:label="Camada#4"
     style="display:inline">
    <path
       style="fill:#ffffff;fill-opacity:1;stroke:#000000;stroke-width:0.62240088px;stroke-linecap:butt;stroke-linejoin:miter;stroke-opacity:1;display:inline"
       d="m 296.43859,111.71274 -21.2511,16.94149 0,43.07979 21.2511,0 z"
       id="path4806-7"
       inkscape:connector-curvature="0"
       sodipodi:nodetypes="ccccc" />
    <path
       style="fill:#ffffff;fill-opacity:1;stroke:#000000;stroke-width:0.62240088px;stroke-linecap:butt;stroke-linejoin:miter;stroke-opacity:1;display:inline"
       d="m 350.38953,111.88563 21.25109,16.94149 0,43.07979 -21.25109,0 z"
       id="path4806-7-8"
       inkscape:connector-curvature="0"
       sodipodi:nodetypes="ccccc" />
  </g>
  <g
     inkscape:groupmode="layer"
     id="layer2"
     inkscape:label="Camada"
     style="display:inline">
    <path
       sodipodi:type="star"
       style="fill:#ffffff;fill-opacity:1;stroke:#000000;stroke-width:2.20000005;stroke-miterlimit:4;stroke-opacity:1;stroke-dasharray:none"
       id="path4272"
       sodipodi:sides="3"
       sodipodi:cx="142.38423"
       sodipodi:cy="277.37628"
       sodipodi:r1="146.37982"
       sodipodi:r2="74.296898"
       sodipodi:arg1="0.52223968"
       sodipodi:arg2="1.5940259"
       inkscape:flatsided="false"
       inkscape:rounded="0.03"
       inkscape:randomized="0"
       d="m 269.25223,350.39383 c -2.0062,3.29535 -124.73574,1.25399 -128.59373,1.2593 -3.7484,0.005 -123.145149,2.37422 -124.943324,-0.91471 -1.85075,-3.3851 61.281884,-108.65131 63.206279,-111.99509 1.869727,-3.24879 59.516445,-107.83394 63.263835,-107.74673 3.85695,0.0898 63.45385,107.39732 65.38745,110.73578 1.87867,3.24363 63.6287,105.45972 61.67949,108.66145 z"
       inkscape:transform-center-x="2.1779371"
       inkscape:transform-center-y="-30.956272"
       transform="matrix(1,0,0,0.782082,181.1748,5.7285305)" />
  </g>
  <g
     inkscape:groupmode="layer"
     id="layer12"
     inkscape:label="Camada#2"
     style="display:inline">
    <path
       style="fill:none;stroke:#000000;stroke-width:6;stroke-linecap:butt;stroke-linejoin:miter;stroke-miterlimit:4;stroke-opacity:1;stroke-dasharray:none"
       d="m 257.4774,195.01441 c 33.35901,32.24256 29.9437,49.88781 33.04814,86.17167"
       id="path4353"
       inkscape:connector-curvature="0"
       sodipodi:nodetypes="cc" />
    <path
       style="fill:none;stroke:#000000;stroke-width:6;stroke-linecap:butt;stroke-linejoin:miter;stroke-miterlimit:4;stroke-opacity:1;stroke-dasharray:none;display:inline"
       d="m 389.55954,196.18367 c -33.35901,32.24256 -29.9437,49.88781 -33.04814,86.17167"
       id="path4353-2"
       inkscape:connector-curvature="0"
       sodipodi:nodetypes="cc" />
  </g>
  <g
     inkscape:groupmode="layer"
     id="layer13"
     inkscape:label="Camada#3"
     style="display:inline">
    <path
       sodipodi:type="star"
       style="fill:#000000;fill-opacity:1;stroke:#000000;stroke-width:2.20000005;stroke-miterlimit:4;stroke-opacity:1;stroke-dasharray:none"
       id="path4440"
       sodipodi:sides="3"
       sodipodi:cx="280.0993"
       sodipodi:cy="202.48227"
       sodipodi:r1="24.018572"
       sodipodi:r2="12.190924"
       sodipodi:arg1="0.53581124"
       sodipodi:arg2="1.5830088"
       inkscape:flatsided="false"
       inkscape:rounded="0.03"
       inkscape:randomized="0"
       d="m 300.75179,214.74468 c -0.3186,0.53659 -20.17737,-0.0648 -20.80136,-0.0724 -0.624,-0.008 -20.49153,0.10857 -20.79693,-0.43564 -0.3054,-0.54421 10.14478,-17.44172 10.46338,-17.97831 0.3186,-0.53659 10.15174,-17.80046 10.77574,-17.79284 0.624,0.008 10.03259,17.5065 10.33799,18.0507 0.30539,0.54421 10.33978,17.6919 10.02118,18.22849 z"
       inkscape:transform-center-x="0.175495"
       inkscape:transform-center-y="-6.9197407"
       transform="matrix(1.2001119,0,0,1.2001119,-13.432154,-72.003354)" />
  </g>
</svg>
