<?xml version="1.0" encoding="UTF-8" standalone="no"?>
<!-- Created with Inkscape (http://www.inkscape.org/) -->

<svg
   xmlns:dc="http://purl.org/dc/elements/1.1/"
   xmlns:cc="http://creativecommons.org/ns#"
   xmlns:rdf="http://www.w3.org/1999/02/22-rdf-syntax-ns#"
   xmlns:svg="http://www.w3.org/2000/svg"
   xmlns="http://www.w3.org/2000/svg"
   xmlns:sodipodi="http://sodipodi.sourceforge.net/DTD/sodipodi-0.dtd"
   xmlns:inkscape="http://www.inkscape.org/namespaces/inkscape"
   width="210mm"
   height="297mm"
   id="svg3203"
   version="1.1"
   inkscape:version="0.48.5 r10040"
   sodipodi:docname="projectileRedTemp.svg">
  <defs
     id="defs3">
    <filter
       inkscape:collect="always"
       id="filter3928"
       x="-0.13800011"
       width="1.2760002"
       y="-0.06037498"
       height="1.12075">
      <feGaussianBlur
         inkscape:collect="always"
         stdDeviation="2.9760005"
         id="feGaussianBlur3930" />
    </filter>
    <filter
       inkscape:collect="always"
       id="filter3960"
       x="-0.13567771"
       width="1.2713554"
       y="-0.059358945"
       height="1.1187179">
      <feGaussianBlur
         inkscape:collect="always"
         stdDeviation="2.9259181"
         id="feGaussianBlur3962" />
    </filter>
    <filter
       inkscape:collect="always"
       id="filter3996"
       x="-0.19517155"
       width="1.3903431"
       y="-0.085387476"
       height="1.170775">
      <feGaussianBlur
         inkscape:collect="always"
         stdDeviation="4.2089152"
         id="feGaussianBlur3998" />
    </filter>
    <filter
       color-interpolation-filters="sRGB"
       inkscape:collect="always"
       id="filter3996-1"
       x="-0.19517155"
       width="1.3903431"
       y="-0.085387476"
       height="1.1707751">
      <feGaussianBlur
         inkscape:collect="always"
         stdDeviation="4.2089152"
         id="feGaussianBlur3998-7" />
    </filter>
    <filter
       color-interpolation-filters="sRGB"
       inkscape:collect="always"
       id="filter3960-4"
       x="-0.13567771"
       width="1.2713554"
       y="-0.059358943"
       height="1.1187179">
      <feGaussianBlur
         inkscape:collect="always"
         stdDeviation="2.9259181"
         id="feGaussianBlur3962-0" />
    </filter>
    <filter
       color-interpolation-filters="sRGB"
       inkscape:collect="always"
       id="filter3928-9"
       x="-0.13800012"
       width="1.2760001"
       y="-0.060374979"
       height="1.12075">
      <feGaussianBlur
         inkscape:collect="always"
         stdDeviation="2.9760005"
         id="feGaussianBlur3930-4" />
    </filter>
    <filter
       color-interpolation-filters="sRGB"
       inkscape:collect="always"
       id="filter3996-4"
       x="-0.19517155"
       width="1.3903431"
       y="-0.085387476"
       height="1.1707751">
      <feGaussianBlur
         inkscape:collect="always"
         stdDeviation="4.2089152"
         id="feGaussianBlur3998-5" />
    </filter>
    <filter
       color-interpolation-filters="sRGB"
       inkscape:collect="always"
       id="filter3960-5"
       x="-0.13567771"
       width="1.2713554"
       y="-0.059358943"
       height="1.1187179">
      <feGaussianBlur
         inkscape:collect="always"
         stdDeviation="2.9259181"
         id="feGaussianBlur3962-1" />
    </filter>
    <filter
       color-interpolation-filters="sRGB"
       inkscape:collect="always"
       id="filter3928-7"
       x="-0.13800012"
       width="1.2760001"
       y="-0.060374979"
       height="1.12075">
      <feGaussianBlur
         inkscape:collect="always"
         stdDeviation="2.9760005"
         id="feGaussianBlur3930-1" />
    </filter>
    <filter
       color-interpolation-filters="sRGB"
       inkscape:collect="always"
       id="filter3996-6"
       x="-0.19517155"
       width="1.3903431"
       y="-0.085387476"
       height="1.1707751">
      <feGaussianBlur
         inkscape:collect="always"
         stdDeviation="4.2089152"
         id="feGaussianBlur3998-1" />
    </filter>
    <filter
       color-interpolation-filters="sRGB"
       inkscape:collect="always"
       id="filter3960-42"
       x="-0.13567771"
       width="1.2713554"
       y="-0.059358943"
       height="1.1187179">
      <feGaussianBlur
         inkscape:collect="always"
         stdDeviation="2.9259181"
         id="feGaussianBlur3962-3" />
    </filter>
    <filter
       color-interpolation-filters="sRGB"
       inkscape:collect="always"
       id="filter3928-2"
       x="-0.13800012"
       width="1.2760001"
       y="-0.060374979"
       height="1.12075">
      <feGaussianBlur
         inkscape:collect="always"
         stdDeviation="2.9760005"
         id="feGaussianBlur3930-2" />
    </filter>
  </defs>
  <sodipodi:namedview
     inkscape:document-units="mm"
     id="base"
     pagecolor="#ffffff"
     bordercolor="#666666"
     borderopacity="1.0"
     inkscape:pageopacity="0.0"
     inkscape:pageshadow="2"
     inkscape:zoom="0.35000001"
     inkscape:cx="706.42845"
     inkscape:cy="541.00657"
     inkscape:current-layer="layer3"
     showgrid="false"
     inkscape:window-width="1366"
     inkscape:window-height="705"
     inkscape:window-x="-8"
     inkscape:window-y="-8"
     inkscape:window-maximized="1" />
  <metadata
     id="metadata4">
    <rdf:RDF>
      <cc:Work
         rdf:about="">
        <dc:format>image/svg+xml</dc:format>
        <dc:type
           rdf:resource="http://purl.org/dc/dcmitype/StillImage" />
        <dc:title />
      </cc:Work>
    </rdf:RDF>
  </metadata>
  <g
     inkscape:groupmode="layer"
     id="layer3"
     inkscape:label="Layer#1"
     style="display:inline">
    <g
       id="g3046">
      <path
         sodipodi:nodetypes="ccccsc"
         inkscape:connector-curvature="0"
         id="path3320-51"
         d="m 487.49417,305.86938 -0.82152,90.36848 c 18.7896,-16.91186 35.64831,-12.5839 51.75649,0 l -0.82153,-90.36848 c 0,0 -1.85945,-27.85555 -26.69979,-27.93208 -21.63102,-0.0666 -23.41365,27.93208 -23.41365,27.93208 z"
         style="fill:#fd0707;fill-opacity:1;stroke:#a3ecec;stroke-width:0.57507229px;stroke-linecap:butt;stroke-linejoin:miter;stroke-opacity:1;display:inline;filter:url(#filter3928)" />
      <path
         transform="matrix(0.74208722,0,0,0.76950092,114.51965,-47.844841)"
         sodipodi:nodetypes="ccccsc"
         inkscape:connector-curvature="0"
         id="path3320-7-5-4"
         d="m 510.82921,465.15967 -0.82153,90.36848 c 18.78961,-16.91186 35.64832,-12.5839 51.7565,0 l -0.82153,-90.36848 c 0,0 -1.85945,-27.85555 -26.69979,-27.93208 -21.63102,-0.0666 -23.41365,27.93208 -23.41365,27.93208 z"
         style="fill:#fd3333;fill-opacity:1;stroke:#b0feff;stroke-width:0.57507229px;stroke-linecap:butt;stroke-linejoin:miter;stroke-opacity:1;display:inline;filter:url(#filter3960)" />
      <path
         transform="matrix(0.51976093,0,0,0.60437918,234.37546,32.788257)"
         sodipodi:nodetypes="ccccsc"
         inkscape:connector-curvature="0"
         id="path3320-7-5-4-2-42"
         d="m 510.82921,465.15967 -0.82153,90.36848 c 18.78961,-16.91186 35.64832,-12.5839 51.7565,0 l -0.82153,-90.36848 c 0,0 -1.85945,-27.85555 -26.69979,-27.93208 -21.63102,-0.0666 -23.41365,27.93208 -23.41365,27.93208 z"
         style="fill:#fd4d4d;fill-opacity:1;stroke:#b0feff;stroke-width:0.57507229px;stroke-linecap:butt;stroke-linejoin:miter;stroke-opacity:1;display:inline;filter:url(#filter3996)" />
      <path
         sodipodi:nodetypes="ccccsc"
         inkscape:connector-curvature="0"
         id="path3320-51-8"
         d="m 402.08613,361.14404 -0.82152,90.36848 c 18.7896,-16.91186 35.64831,-12.5839 51.75649,0 l -0.82153,-90.36848 c 0,0 -1.85945,-27.85555 -26.69979,-27.93208 -21.63102,-0.0666 -23.41365,27.93208 -23.41365,27.93208 z"
         style="fill:#fd0707;fill-opacity:1;stroke:#a3ecec;stroke-width:0.57507229px;stroke-linecap:butt;stroke-linejoin:miter;stroke-opacity:1;display:inline;filter:url(#filter3928-9)" />
      <path
         transform="matrix(0.74208722,0,0,0.76950092,29.111615,7.4298238)"
         sodipodi:nodetypes="ccccsc"
         inkscape:connector-curvature="0"
         id="path3320-7-5-4-8"
         d="m 510.82921,465.15967 -0.82153,90.36848 c 18.78961,-16.91186 35.64832,-12.5839 51.7565,0 l -0.82153,-90.36848 c 0,0 -1.85945,-27.85555 -26.69979,-27.93208 -21.63102,-0.0666 -23.41365,27.93208 -23.41365,27.93208 z"
         style="fill:#fd3333;fill-opacity:1;stroke:#b0feff;stroke-width:0.57507229px;stroke-linecap:butt;stroke-linejoin:miter;stroke-opacity:1;display:inline;filter:url(#filter3960-4)" />
      <path
         transform="matrix(0.51976093,0,0,0.60437918,148.96743,88.062913)"
         sodipodi:nodetypes="ccccsc"
         inkscape:connector-curvature="0"
         id="path3320-7-5-4-2-42-2"
         d="m 510.82921,465.15967 -0.82153,90.36848 c 18.78961,-16.91186 35.64832,-12.5839 51.7565,0 l -0.82153,-90.36848 c 0,0 -1.85945,-27.85555 -26.69979,-27.93208 -21.63102,-0.0666 -23.41365,27.93208 -23.41365,27.93208 z"
         style="fill:#fd4d4d;fill-opacity:1;stroke:#b0feff;stroke-width:0.57507229px;stroke-linecap:butt;stroke-linejoin:miter;stroke-opacity:1;display:inline;filter:url(#filter3996-1)" />
      <path
         sodipodi:nodetypes="ccccsc"
         inkscape:connector-curvature="0"
         id="path3320-51-1"
         d="m 307.80042,361.14404 -0.82152,90.36848 c 18.7896,-16.91186 35.64831,-12.5839 51.75649,0 l -0.82153,-90.36848 c 0,0 -1.85945,-27.85555 -26.69979,-27.93208 -21.63102,-0.0666 -23.41365,27.93208 -23.41365,27.93208 z"
         style="fill:#fd0707;fill-opacity:1;stroke:#a3ecec;stroke-width:0.57507229px;stroke-linecap:butt;stroke-linejoin:miter;stroke-opacity:1;display:inline;filter:url(#filter3928-7)" />
      <path
         transform="matrix(0.74208722,0,0,0.76950092,-65.174099,7.4298242)"
         sodipodi:nodetypes="ccccsc"
         inkscape:connector-curvature="0"
         id="path3320-7-5-4-5"
         d="m 510.82921,465.15967 -0.82153,90.36848 c 18.78961,-16.91186 35.64832,-12.5839 51.7565,0 l -0.82153,-90.36848 c 0,0 -1.85945,-27.85555 -26.69979,-27.93208 -21.63102,-0.0666 -23.41365,27.93208 -23.41365,27.93208 z"
         style="fill:#fd3333;fill-opacity:1;stroke:#b0feff;stroke-width:0.57507229px;stroke-linecap:butt;stroke-linejoin:miter;stroke-opacity:1;display:inline;filter:url(#filter3960-5)" />
      <path
         transform="matrix(0.51976093,0,0,0.60437918,54.681716,88.062914)"
         sodipodi:nodetypes="ccccsc"
         inkscape:connector-curvature="0"
         id="path3320-7-5-4-2-42-27"
         d="m 510.82921,465.15967 -0.82153,90.36848 c 18.78961,-16.91186 35.64832,-12.5839 51.7565,0 l -0.82153,-90.36848 c 0,0 -1.85945,-27.85555 -26.69979,-27.93208 -21.63102,-0.0666 -23.41365,27.93208 -23.41365,27.93208 z"
         style="fill:#fd4d4d;fill-opacity:1;stroke:#b0feff;stroke-width:0.57507229px;stroke-linecap:butt;stroke-linejoin:miter;stroke-opacity:1;display:inline;filter:url(#filter3996-4)" />
      <path
         sodipodi:nodetypes="ccccsc"
         inkscape:connector-curvature="0"
         id="path3320-51-16"
         d="m 216.37185,305.42976 -0.82152,90.36848 c 18.7896,-16.91186 35.64831,-12.5839 51.75649,0 l -0.82153,-90.36848 c 0,0 -1.85945,-27.85555 -26.69979,-27.93208 -21.63102,-0.0666 -23.41365,27.93208 -23.41365,27.93208 z"
         style="fill:#fd0707;fill-opacity:1;stroke:#a3ecec;stroke-width:0.57507229px;stroke-linecap:butt;stroke-linejoin:miter;stroke-opacity:1;display:inline;filter:url(#filter3928-2)" />
      <path
         transform="matrix(0.74208722,0,0,0.76950092,-156.60267,-48.284463)"
         sodipodi:nodetypes="ccccsc"
         inkscape:connector-curvature="0"
         id="path3320-7-5-4-85"
         d="m 510.82921,465.15967 -0.82153,90.36848 c 18.78961,-16.91186 35.64832,-12.5839 51.7565,0 l -0.82153,-90.36848 c 0,0 -1.85945,-27.85555 -26.69979,-27.93208 -21.63102,-0.0666 -23.41365,27.93208 -23.41365,27.93208 z"
         style="fill:#fd3333;fill-opacity:1;stroke:#b0feff;stroke-width:0.57507229px;stroke-linecap:butt;stroke-linejoin:miter;stroke-opacity:1;display:inline;filter:url(#filter3960-42)" />
      <path
         transform="matrix(0.51976093,0,0,0.60437918,-36.746861,32.348627)"
         sodipodi:nodetypes="ccccsc"
         inkscape:connector-curvature="0"
         id="path3320-7-5-4-2-42-7"
         d="m 510.82921,465.15967 -0.82153,90.36848 c 18.78961,-16.91186 35.64832,-12.5839 51.7565,0 l -0.82153,-90.36848 c 0,0 -1.85945,-27.85555 -26.69979,-27.93208 -21.63102,-0.0666 -23.41365,27.93208 -23.41365,27.93208 z"
         style="fill:#fd4d4d;fill-opacity:1;stroke:#b0feff;stroke-width:0.57507229px;stroke-linecap:butt;stroke-linejoin:miter;stroke-opacity:1;display:inline;filter:url(#filter3996-6)" />
    </g>
  </g>
</svg>
